<mxfile host="app.diagrams.net" agent="Mozilla/5.0 (Windows NT 10.0; Win64; x64) AppleWebKit/537.36 (KHTML, like Gecko) Chrome/128.0.0.0 Safari/537.36" version="24.7.14">
  <diagram name="Page-1" id="6pce0CSTc99Uxpxixjnp">
    <mxGraphModel dx="690" dy="1458" grid="1" gridSize="10" guides="1" tooltips="1" connect="1" arrows="1" fold="1" page="1" pageScale="1" pageWidth="850" pageHeight="1100" math="0" shadow="0">
      <root>
        <mxCell id="0" />
        <mxCell id="1" parent="0" />
        <mxCell id="AOdPLQqiWz-tcn7f9Xo1-1" value="&lt;blockquote style=&quot;margin: 0 0 0 40px; border: none; padding: 0px;&quot;&gt;Take a input from user&lt;/blockquote&gt;" style="rounded=0;whiteSpace=wrap;html=1;" vertex="1" parent="1">
          <mxGeometry x="180" y="240" width="120" height="60" as="geometry" />
        </mxCell>
        <mxCell id="AOdPLQqiWz-tcn7f9Xo1-2" value="" style="endArrow=classic;html=1;rounded=0;" edge="1" parent="1">
          <mxGeometry width="50" height="50" relative="1" as="geometry">
            <mxPoint x="370" y="310" as="sourcePoint" />
            <mxPoint x="370" y="360" as="targetPoint" />
          </mxGeometry>
        </mxCell>
        <mxCell id="AOdPLQqiWz-tcn7f9Xo1-4" value="Requirement Gathering" style="ellipse;whiteSpace=wrap;html=1;" vertex="1" parent="1">
          <mxGeometry x="310" y="90" width="120" height="80" as="geometry" />
        </mxCell>
        <mxCell id="AOdPLQqiWz-tcn7f9Xo1-6" value="" style="endArrow=classic;html=1;rounded=0;" edge="1" parent="1">
          <mxGeometry width="50" height="50" relative="1" as="geometry">
            <mxPoint x="370" y="180" as="sourcePoint" />
            <mxPoint x="370" y="230" as="targetPoint" />
          </mxGeometry>
        </mxCell>
        <mxCell id="AOdPLQqiWz-tcn7f9Xo1-7" value="" style="endArrow=classic;html=1;rounded=0;entryX=0.75;entryY=0;entryDx=0;entryDy=0;" edge="1" parent="1" target="AOdPLQqiWz-tcn7f9Xo1-16">
          <mxGeometry width="50" height="50" relative="1" as="geometry">
            <mxPoint x="369.44" y="450" as="sourcePoint" />
            <mxPoint x="369.44" y="520" as="targetPoint" />
          </mxGeometry>
        </mxCell>
        <mxCell id="AOdPLQqiWz-tcn7f9Xo1-8" value="Prepare a sytem requirement document" style="rounded=0;whiteSpace=wrap;html=1;" vertex="1" parent="1">
          <mxGeometry x="330" y="240" width="120" height="60" as="geometry" />
        </mxCell>
        <mxCell id="AOdPLQqiWz-tcn7f9Xo1-9" value="Finalise the requirements from user" style="rounded=0;whiteSpace=wrap;html=1;" vertex="1" parent="1">
          <mxGeometry x="480" y="240" width="120" height="60" as="geometry" />
        </mxCell>
        <mxCell id="AOdPLQqiWz-tcn7f9Xo1-10" value="System Design" style="ellipse;whiteSpace=wrap;html=1;" vertex="1" parent="1">
          <mxGeometry x="310" y="370" width="120" height="80" as="geometry" />
        </mxCell>
        <mxCell id="AOdPLQqiWz-tcn7f9Xo1-11" value="" style="endArrow=classic;html=1;rounded=0;" edge="1" parent="1">
          <mxGeometry width="50" height="50" relative="1" as="geometry">
            <mxPoint x="300" y="269.5" as="sourcePoint" />
            <mxPoint x="330" y="269.5" as="targetPoint" />
          </mxGeometry>
        </mxCell>
        <mxCell id="AOdPLQqiWz-tcn7f9Xo1-14" value="" style="endArrow=classic;html=1;rounded=0;" edge="1" parent="1">
          <mxGeometry width="50" height="50" relative="1" as="geometry">
            <mxPoint x="450" y="269.5" as="sourcePoint" />
            <mxPoint x="480" y="269.5" as="targetPoint" />
          </mxGeometry>
        </mxCell>
        <mxCell id="AOdPLQqiWz-tcn7f9Xo1-46" style="edgeStyle=orthogonalEdgeStyle;rounded=0;orthogonalLoop=1;jettySize=auto;html=1;" edge="1" parent="1" source="AOdPLQqiWz-tcn7f9Xo1-15" target="AOdPLQqiWz-tcn7f9Xo1-21">
          <mxGeometry relative="1" as="geometry" />
        </mxCell>
        <mxCell id="AOdPLQqiWz-tcn7f9Xo1-15" value="UI Design" style="rounded=0;whiteSpace=wrap;html=1;" vertex="1" parent="1">
          <mxGeometry x="410" y="530" width="120" height="60" as="geometry" />
        </mxCell>
        <mxCell id="AOdPLQqiWz-tcn7f9Xo1-42" style="edgeStyle=orthogonalEdgeStyle;rounded=0;orthogonalLoop=1;jettySize=auto;html=1;entryX=0;entryY=0.5;entryDx=0;entryDy=0;" edge="1" parent="1" source="AOdPLQqiWz-tcn7f9Xo1-16" target="AOdPLQqiWz-tcn7f9Xo1-15">
          <mxGeometry relative="1" as="geometry" />
        </mxCell>
        <mxCell id="AOdPLQqiWz-tcn7f9Xo1-43" style="edgeStyle=orthogonalEdgeStyle;rounded=0;orthogonalLoop=1;jettySize=auto;html=1;" edge="1" parent="1" source="AOdPLQqiWz-tcn7f9Xo1-16" target="AOdPLQqiWz-tcn7f9Xo1-21">
          <mxGeometry relative="1" as="geometry" />
        </mxCell>
        <mxCell id="AOdPLQqiWz-tcn7f9Xo1-16" value="Database Design" style="rounded=0;whiteSpace=wrap;html=1;" vertex="1" parent="1">
          <mxGeometry x="210" y="530" width="120" height="60" as="geometry" />
        </mxCell>
        <mxCell id="AOdPLQqiWz-tcn7f9Xo1-49" value="" style="edgeStyle=orthogonalEdgeStyle;rounded=0;orthogonalLoop=1;jettySize=auto;html=1;" edge="1" parent="1" source="AOdPLQqiWz-tcn7f9Xo1-17" target="AOdPLQqiWz-tcn7f9Xo1-19">
          <mxGeometry relative="1" as="geometry" />
        </mxCell>
        <mxCell id="AOdPLQqiWz-tcn7f9Xo1-17" value="Implementation" style="ellipse;whiteSpace=wrap;html=1;" vertex="1" parent="1">
          <mxGeometry x="310" y="840" width="120" height="80" as="geometry" />
        </mxCell>
        <mxCell id="AOdPLQqiWz-tcn7f9Xo1-18" value="Tools" style="rounded=0;whiteSpace=wrap;html=1;" vertex="1" parent="1">
          <mxGeometry x="500" y="980" width="120" height="60" as="geometry" />
        </mxCell>
        <mxCell id="AOdPLQqiWz-tcn7f9Xo1-51" value="" style="edgeStyle=orthogonalEdgeStyle;rounded=0;orthogonalLoop=1;jettySize=auto;html=1;" edge="1" parent="1" source="AOdPLQqiWz-tcn7f9Xo1-19" target="AOdPLQqiWz-tcn7f9Xo1-18">
          <mxGeometry relative="1" as="geometry" />
        </mxCell>
        <mxCell id="AOdPLQqiWz-tcn7f9Xo1-52" value="" style="edgeStyle=orthogonalEdgeStyle;rounded=0;orthogonalLoop=1;jettySize=auto;html=1;" edge="1" parent="1" source="AOdPLQqiWz-tcn7f9Xo1-19" target="AOdPLQqiWz-tcn7f9Xo1-23">
          <mxGeometry relative="1" as="geometry" />
        </mxCell>
        <mxCell id="AOdPLQqiWz-tcn7f9Xo1-19" value="Frameworks" style="rounded=0;whiteSpace=wrap;html=1;" vertex="1" parent="1">
          <mxGeometry x="330" y="980" width="120" height="60" as="geometry" />
        </mxCell>
        <mxCell id="AOdPLQqiWz-tcn7f9Xo1-50" value="" style="edgeStyle=orthogonalEdgeStyle;rounded=0;orthogonalLoop=1;jettySize=auto;html=1;" edge="1" parent="1" source="AOdPLQqiWz-tcn7f9Xo1-20" target="AOdPLQqiWz-tcn7f9Xo1-19">
          <mxGeometry relative="1" as="geometry" />
        </mxCell>
        <mxCell id="AOdPLQqiWz-tcn7f9Xo1-20" value="Programming Languages" style="rounded=0;whiteSpace=wrap;html=1;" vertex="1" parent="1">
          <mxGeometry x="180" y="980" width="120" height="60" as="geometry" />
        </mxCell>
        <mxCell id="AOdPLQqiWz-tcn7f9Xo1-47" value="" style="edgeStyle=orthogonalEdgeStyle;rounded=0;orthogonalLoop=1;jettySize=auto;html=1;" edge="1" parent="1" source="AOdPLQqiWz-tcn7f9Xo1-21" target="AOdPLQqiWz-tcn7f9Xo1-22">
          <mxGeometry relative="1" as="geometry" />
        </mxCell>
        <mxCell id="AOdPLQqiWz-tcn7f9Xo1-21" value="Final User Feedback" style="ellipse;whiteSpace=wrap;html=1;" vertex="1" parent="1">
          <mxGeometry x="310" y="630" width="120" height="80" as="geometry" />
        </mxCell>
        <mxCell id="AOdPLQqiWz-tcn7f9Xo1-48" value="" style="edgeStyle=orthogonalEdgeStyle;rounded=0;orthogonalLoop=1;jettySize=auto;html=1;" edge="1" parent="1" source="AOdPLQqiWz-tcn7f9Xo1-22" target="AOdPLQqiWz-tcn7f9Xo1-17">
          <mxGeometry relative="1" as="geometry" />
        </mxCell>
        <mxCell id="AOdPLQqiWz-tcn7f9Xo1-22" value="take a final review before start implementation part" style="rounded=0;whiteSpace=wrap;html=1;" vertex="1" parent="1">
          <mxGeometry x="310" y="740" width="120" height="60" as="geometry" />
        </mxCell>
        <mxCell id="AOdPLQqiWz-tcn7f9Xo1-53" value="" style="edgeStyle=orthogonalEdgeStyle;rounded=0;orthogonalLoop=1;jettySize=auto;html=1;" edge="1" parent="1" source="AOdPLQqiWz-tcn7f9Xo1-23" target="AOdPLQqiWz-tcn7f9Xo1-24">
          <mxGeometry relative="1" as="geometry" />
        </mxCell>
        <mxCell id="AOdPLQqiWz-tcn7f9Xo1-23" value="Testing the Software" style="ellipse;whiteSpace=wrap;html=1;" vertex="1" parent="1">
          <mxGeometry x="330" y="1090" width="120" height="80" as="geometry" />
        </mxCell>
        <mxCell id="AOdPLQqiWz-tcn7f9Xo1-55" value="" style="edgeStyle=orthogonalEdgeStyle;rounded=0;orthogonalLoop=1;jettySize=auto;html=1;" edge="1" parent="1" source="AOdPLQqiWz-tcn7f9Xo1-24" target="AOdPLQqiWz-tcn7f9Xo1-26">
          <mxGeometry relative="1" as="geometry" />
        </mxCell>
        <mxCell id="AOdPLQqiWz-tcn7f9Xo1-56" value="" style="edgeStyle=orthogonalEdgeStyle;rounded=0;orthogonalLoop=1;jettySize=auto;html=1;" edge="1" parent="1" source="AOdPLQqiWz-tcn7f9Xo1-24" target="AOdPLQqiWz-tcn7f9Xo1-27">
          <mxGeometry relative="1" as="geometry" />
        </mxCell>
        <mxCell id="AOdPLQqiWz-tcn7f9Xo1-24" value="Performance Testing&amp;nbsp;" style="rounded=0;whiteSpace=wrap;html=1;" vertex="1" parent="1">
          <mxGeometry x="340" y="1220" width="120" height="60" as="geometry" />
        </mxCell>
        <mxCell id="AOdPLQqiWz-tcn7f9Xo1-54" value="" style="edgeStyle=orthogonalEdgeStyle;rounded=0;orthogonalLoop=1;jettySize=auto;html=1;" edge="1" parent="1" source="AOdPLQqiWz-tcn7f9Xo1-25" target="AOdPLQqiWz-tcn7f9Xo1-24">
          <mxGeometry relative="1" as="geometry" />
        </mxCell>
        <mxCell id="AOdPLQqiWz-tcn7f9Xo1-25" value="Unit Testing" style="rounded=1;whiteSpace=wrap;html=1;" vertex="1" parent="1">
          <mxGeometry x="170" y="1220" width="120" height="60" as="geometry" />
        </mxCell>
        <mxCell id="AOdPLQqiWz-tcn7f9Xo1-26" value="User Acceptance Testing" style="rounded=0;whiteSpace=wrap;html=1;" vertex="1" parent="1">
          <mxGeometry x="510" y="1220" width="120" height="60" as="geometry" />
        </mxCell>
        <mxCell id="AOdPLQqiWz-tcn7f9Xo1-57" value="" style="edgeStyle=orthogonalEdgeStyle;rounded=0;orthogonalLoop=1;jettySize=auto;html=1;" edge="1" parent="1" source="AOdPLQqiWz-tcn7f9Xo1-27" target="AOdPLQqiWz-tcn7f9Xo1-29">
          <mxGeometry relative="1" as="geometry" />
        </mxCell>
        <mxCell id="AOdPLQqiWz-tcn7f9Xo1-27" value="Deployment/Release of the Software" style="ellipse;whiteSpace=wrap;html=1;" vertex="1" parent="1">
          <mxGeometry x="340" y="1350" width="120" height="80" as="geometry" />
        </mxCell>
        <mxCell id="AOdPLQqiWz-tcn7f9Xo1-58" value="" style="edgeStyle=orthogonalEdgeStyle;rounded=0;orthogonalLoop=1;jettySize=auto;html=1;" edge="1" parent="1" source="AOdPLQqiWz-tcn7f9Xo1-29" target="AOdPLQqiWz-tcn7f9Xo1-30">
          <mxGeometry relative="1" as="geometry" />
        </mxCell>
        <mxCell id="AOdPLQqiWz-tcn7f9Xo1-29" value="Chhose a platform to deploy the software" style="rounded=0;whiteSpace=wrap;html=1;" vertex="1" parent="1">
          <mxGeometry x="340" y="1490" width="120" height="60" as="geometry" />
        </mxCell>
        <mxCell id="AOdPLQqiWz-tcn7f9Xo1-59" value="" style="edgeStyle=orthogonalEdgeStyle;rounded=0;orthogonalLoop=1;jettySize=auto;html=1;" edge="1" parent="1" source="AOdPLQqiWz-tcn7f9Xo1-30" target="AOdPLQqiWz-tcn7f9Xo1-35">
          <mxGeometry relative="1" as="geometry" />
        </mxCell>
        <mxCell id="AOdPLQqiWz-tcn7f9Xo1-30" value="Maintanence and Managemnet" style="ellipse;whiteSpace=wrap;html=1;" vertex="1" parent="1">
          <mxGeometry x="340" y="1600" width="120" height="80" as="geometry" />
        </mxCell>
        <mxCell id="AOdPLQqiWz-tcn7f9Xo1-60" value="" style="edgeStyle=orthogonalEdgeStyle;rounded=0;orthogonalLoop=1;jettySize=auto;html=1;" edge="1" parent="1" source="AOdPLQqiWz-tcn7f9Xo1-34" target="AOdPLQqiWz-tcn7f9Xo1-35">
          <mxGeometry relative="1" as="geometry" />
        </mxCell>
        <mxCell id="AOdPLQqiWz-tcn7f9Xo1-34" value="support for user for any types of problem in software" style="rounded=0;whiteSpace=wrap;html=1;" vertex="1" parent="1">
          <mxGeometry x="130" y="1760" width="120" height="60" as="geometry" />
        </mxCell>
        <mxCell id="AOdPLQqiWz-tcn7f9Xo1-61" value="" style="edgeStyle=orthogonalEdgeStyle;rounded=0;orthogonalLoop=1;jettySize=auto;html=1;" edge="1" parent="1" source="AOdPLQqiWz-tcn7f9Xo1-35" target="AOdPLQqiWz-tcn7f9Xo1-37">
          <mxGeometry relative="1" as="geometry" />
        </mxCell>
        <mxCell id="AOdPLQqiWz-tcn7f9Xo1-62" value="" style="edgeStyle=orthogonalEdgeStyle;rounded=0;orthogonalLoop=1;jettySize=auto;html=1;" edge="1" parent="1" source="AOdPLQqiWz-tcn7f9Xo1-35" target="AOdPLQqiWz-tcn7f9Xo1-38">
          <mxGeometry relative="1" as="geometry" />
        </mxCell>
        <mxCell id="AOdPLQqiWz-tcn7f9Xo1-35" value="ready for updates" style="rounded=0;whiteSpace=wrap;html=1;" vertex="1" parent="1">
          <mxGeometry x="340" y="1760" width="120" height="60" as="geometry" />
        </mxCell>
        <mxCell id="AOdPLQqiWz-tcn7f9Xo1-37" value="Monitoring" style="rounded=0;whiteSpace=wrap;html=1;" vertex="1" parent="1">
          <mxGeometry x="540" y="1760" width="120" height="60" as="geometry" />
        </mxCell>
        <mxCell id="AOdPLQqiWz-tcn7f9Xo1-38" value="END" style="ellipse;whiteSpace=wrap;html=1;" vertex="1" parent="1">
          <mxGeometry x="340" y="1890" width="120" height="80" as="geometry" />
        </mxCell>
        <mxCell id="AOdPLQqiWz-tcn7f9Xo1-41" style="edgeStyle=orthogonalEdgeStyle;rounded=0;orthogonalLoop=1;jettySize=auto;html=1;exitX=0.5;exitY=1;exitDx=0;exitDy=0;" edge="1" parent="1" source="AOdPLQqiWz-tcn7f9Xo1-39">
          <mxGeometry relative="1" as="geometry">
            <mxPoint x="370.2222222222222" y="90" as="targetPoint" />
          </mxGeometry>
        </mxCell>
        <mxCell id="AOdPLQqiWz-tcn7f9Xo1-39" value="START" style="ellipse;whiteSpace=wrap;html=1;" vertex="1" parent="1">
          <mxGeometry x="310" y="-40" width="120" height="80" as="geometry" />
        </mxCell>
      </root>
    </mxGraphModel>
  </diagram>
</mxfile>
